# xmcd CD database file
# Copyright (C) 1997 Ti Kan
# 
# Track frame offsets:
#     150
#     18075
#     35532
#     49802
#     66257
#     84175
#     98677
#     114840
#     129402
#     144457
#     159365
#     176132
# 
# Disc length: 2599 seconds
# 
# Revision: 1
# Processed by: cddbd v1.4b41PL1 Copyright (c) Steve Scherf et al.
# Submitted via: DiscPlay 4.0.3
# 
DISCID=8f0a250c
DTITLE=Jeff Carson - Butterfly Kisses
DYEAR=1900
DGENRE=
TTITLE0=Butterfly Kisses
TTITLE1=Here's the Deal
TTITLE2=She's the One
TTITLE3=Do It Again
TTITLE4=Try Bein' Me
TTITLE5=If You Wanna get To Heaven
TTITLE6=The Stone
TTITLE7=Hangin' By A Thread
TTITLE8=As One As two Can Get
TTITLE9=Cheatin' On Her Heart
TTITLE10=Today I Started To Love You Again (duet with Merle Haggard)
TTITLE11=Butterfly Kisses - Daddy's Little Girl (Duet With Kippi Brannon)
EXTD=
EXTT0=
EXTT1=\n
EXTT2=
EXTT3=
EXTT4=
EXTT5=
EXTT6=
EXTT7=
EXTT8=
EXTT9=
EXTT10=
EXTT11=
PLAYORDER=
